<svg xmlns="http://www.w3.org/2000/svg" xmlns:xlink="http://www.w3.org/1999/xlink" version="1.1" x="0px" y="0px" viewBox="0 0 64 64" style="enable-background:new 0 0 64 64;" xml:space="preserve"><path d="M7,62h50c2.757,0,5-2.243,5-5V22V12c0-2.757-2.243-5-5-5h-5V3c0-0.552-0.448-1-1-1h-4c-0.552,0-1,0.448-1,1v4H18V3  c0-0.552-0.448-1-1-1h-4c-0.552,0-1,0.448-1,1v4H7c-2.757,0-5,2.243-5,5v10v35C2,59.757,4.243,62,7,62z M60,57c0,1.654-1.346,3-3,3  H7c-1.654,0-3-1.346-3-3V23h18.833c-0.01,0.022-0.016,0.046-0.026,0.068c-0.066,0.154-0.119,0.314-0.178,0.471  c-0.057,0.154-0.12,0.305-0.169,0.461c-0.058,0.184-0.101,0.374-0.148,0.562c-0.034,0.136-0.077,0.27-0.105,0.407  c-0.049,0.235-0.08,0.475-0.111,0.716c-0.013,0.096-0.034,0.19-0.044,0.286C22.018,26.31,22,26.653,22,27c0,5.514,4.486,10,10,10  s10-4.486,10-10c0-0.347-0.018-0.69-0.053-1.028c-0.01-0.096-0.031-0.19-0.044-0.286c-0.032-0.24-0.063-0.481-0.111-0.716  c-0.028-0.137-0.071-0.271-0.105-0.407c-0.047-0.188-0.09-0.378-0.148-0.562c-0.049-0.156-0.112-0.308-0.169-0.461  c-0.058-0.158-0.112-0.318-0.178-0.471c-0.01-0.022-0.016-0.046-0.026-0.068H60V57z M25.886,21.852  c0.079-0.094,0.164-0.182,0.247-0.272c0.117-0.127,0.237-0.251,0.361-0.369c0.097-0.092,0.195-0.182,0.296-0.269  c0.13-0.112,0.264-0.216,0.4-0.319c0.098-0.074,0.193-0.151,0.294-0.22c0.231-0.159,0.469-0.307,0.715-0.44  c0.068-0.037,0.14-0.066,0.209-0.101c0.198-0.1,0.399-0.194,0.604-0.277c0.096-0.039,0.195-0.072,0.292-0.107  c0.189-0.068,0.38-0.129,0.575-0.183c0.1-0.028,0.201-0.054,0.303-0.078c0.207-0.048,0.417-0.086,0.628-0.118  c0.091-0.014,0.18-0.031,0.271-0.042C31.385,19.022,31.691,19,32,19s0.615,0.022,0.918,0.057c0.091,0.01,0.181,0.028,0.271,0.042  c0.211,0.032,0.422,0.07,0.628,0.118c0.102,0.024,0.203,0.05,0.303,0.078c0.194,0.053,0.386,0.115,0.575,0.183  c0.098,0.035,0.196,0.068,0.292,0.107c0.206,0.083,0.406,0.178,0.604,0.277c0.069,0.035,0.141,0.064,0.209,0.101  c0.246,0.133,0.484,0.282,0.715,0.44c0.101,0.069,0.197,0.146,0.294,0.22c0.136,0.103,0.27,0.208,0.4,0.319  c0.101,0.087,0.199,0.177,0.296,0.269c0.124,0.118,0.244,0.242,0.361,0.369c0.083,0.09,0.168,0.178,0.247,0.272  c0.183,0.217,0.358,0.442,0.518,0.68c0.026,0.038,0.047,0.08,0.072,0.118c0.167,0.257,0.316,0.524,0.452,0.796  c0.043,0.085,0.085,0.171,0.125,0.258c0.14,0.309,0.266,0.623,0.365,0.946c0.013,0.041,0.02,0.084,0.032,0.125  c0.086,0.296,0.151,0.597,0.202,0.901c0.015,0.09,0.03,0.181,0.042,0.272C39.969,26.296,40,26.646,40,27c0,4.411-3.589,8-8,8  s-8-3.589-8-8c0-0.354,0.031-0.704,0.077-1.051c0.012-0.091,0.027-0.182,0.042-0.272c0.051-0.305,0.117-0.606,0.202-0.901  c0.012-0.041,0.02-0.084,0.032-0.125c0.099-0.323,0.225-0.638,0.365-0.946c0.04-0.087,0.082-0.173,0.125-0.258  c0.136-0.272,0.285-0.539,0.452-0.796c0.025-0.039,0.046-0.08,0.072-0.118C25.528,22.294,25.703,22.069,25.886,21.852z M48,4h2v4v2  h-2V8V4z M14,4h2v4v2h-2V8V4z M4,12c0-1.654,1.346-3,3-3h5v2c0,0.552,0.448,1,1,1h4c0.552,0,1-0.448,1-1V9h28v2c0,0.552,0.448,1,1,1  h4c0.552,0,1-0.448,1-1V9h5c1.654,0,3,1.346,3,3v9H39.999c-0.047-0.063-0.103-0.118-0.152-0.18  c-0.122-0.154-0.249-0.302-0.379-0.449c-0.111-0.126-0.221-0.252-0.338-0.372c-0.135-0.138-0.28-0.266-0.423-0.396  c-0.185-0.168-0.375-0.33-0.571-0.484c-0.19-0.148-0.381-0.296-0.581-0.43c-0.133-0.089-0.272-0.166-0.408-0.248  c-0.171-0.103-0.341-0.205-0.518-0.298c-0.138-0.072-0.278-0.137-0.419-0.202c-0.189-0.088-0.38-0.172-0.576-0.248  c-0.136-0.053-0.273-0.104-0.411-0.151c-0.212-0.073-0.428-0.136-0.647-0.194c-0.13-0.035-0.258-0.071-0.39-0.1  c-0.245-0.055-0.494-0.096-0.746-0.132c-0.111-0.016-0.22-0.038-0.332-0.051C32.743,17.024,32.374,17,32,17  s-0.743,0.024-1.107,0.065c-0.112,0.012-0.221,0.035-0.332,0.051c-0.251,0.036-0.501,0.077-0.746,0.132  c-0.131,0.029-0.26,0.066-0.39,0.1c-0.219,0.058-0.434,0.121-0.647,0.194c-0.139,0.047-0.275,0.098-0.411,0.151  c-0.195,0.076-0.386,0.16-0.576,0.248c-0.141,0.065-0.281,0.13-0.419,0.202c-0.177,0.093-0.348,0.195-0.518,0.298  c-0.137,0.082-0.276,0.159-0.408,0.248c-0.201,0.134-0.391,0.282-0.581,0.43c-0.197,0.153-0.386,0.315-0.571,0.484  c-0.143,0.13-0.288,0.258-0.423,0.396c-0.117,0.119-0.227,0.246-0.338,0.372c-0.13,0.146-0.258,0.295-0.379,0.449  c-0.049,0.062-0.105,0.117-0.152,0.18H4V12z"></path><path d="M32,30c-0.551,0-1-0.449-1-1h-2c0,1.302,0.839,2.402,2,2.816V33h2v-1.184c1.161-0.414,2-1.514,2-2.816  c0-0.265-0.105-0.52-0.293-0.707l-3.644-3.644C31.206,24.271,31.572,24,32,24c0.551,0,1,0.449,1,1h2c0-1.302-0.839-2.402-2-2.816V21  h-2v1.184c-1.161,0.414-2,1.514-2,2.816c0,0.265,0.105,0.52,0.293,0.707l3.644,3.644C32.794,29.729,32.428,30,32,30z"></path><path d="M36.81,40.762C36.281,40.294,35.593,40,34.833,40h-3.586l-1.707-1.707C29.352,38.105,29.098,38,28.833,38h-7  c-0.234,0-0.46,0.082-0.64,0.232l-5.298,4.415l-0.354-0.354c-0.391-0.391-1.023-0.391-1.414,0l-3,3  c-0.391,0.391-0.391,1.023,0,1.414l10,10C21.321,56.902,21.577,57,21.833,57s0.512-0.098,0.707-0.293l3-3  c0.391-0.391,0.391-1.023,0-1.414l-1.019-1.019L25.068,51h10.764c0.28,0,0.548-0.118,0.737-0.324l9.598-10.47  c0.589-0.643,0.889-1.51,0.823-2.38c-0.066-0.881-0.485-1.674-1.177-2.231c-1.25-1.008-3.154-0.845-4.334,0.368L36.81,40.762z   M21.833,54.586L13.247,46l1.586-1.586l0.293,0.293l4,4L23.418,53L21.833,54.586z M44.56,37.151c0.257,0.208,0.413,0.5,0.437,0.825  c0.024,0.326-0.083,0.638-0.304,0.878L35.393,49h-10.56c-0.155,0-0.309,0.036-0.447,0.105l-1.355,0.678l-2.49-2.49l-3.226-3.226  L22.194,40h6.224l1.707,1.707C30.313,41.895,30.567,42,30.833,42h4c0.403,0,0.747,0.243,0.905,0.587  c0.024,0.052,0.028,0.104,0.043,0.156c0.02,0.072,0.041,0.142,0.044,0.219c0.002,0.047-0.008,0.096-0.014,0.144  c-0.008,0.072-0.02,0.143-0.042,0.209c-0.024,0.068-0.055,0.132-0.095,0.193c-0.015,0.025-0.031,0.048-0.048,0.071  C35.421,43.833,35.084,44,34.714,44H30.5H28v2h2.5h4.214h0.119c1.157,0,2.151-0.665,2.651-1.626  c0.026-0.048,0.055-0.094,0.078-0.144c0.036-0.081,0.063-0.165,0.092-0.249c0.023-0.065,0.053-0.127,0.072-0.194  c0.007-0.027,0.007-0.054,0.014-0.081c0.025-0.103,0.039-0.208,0.053-0.315c0.013-0.098,0.026-0.195,0.03-0.292  c0.001-0.033,0.01-0.065,0.01-0.098c0-0.068-0.016-0.132-0.02-0.2c-0.004-0.065,0.002-0.13-0.007-0.194l5.108-5.25  C43.374,36.883,44.111,36.79,44.56,37.151z"></path><rect x="8" y="15" width="14" height="2"></rect><rect x="40" y="15" width="4" height="2"></rect><rect x="46" y="15" width="4" height="2"></rect><rect x="52" y="15" width="4" height="2"></rect></svg>