<svg xmlns:dc="http://purl.org/dc/elements/1.1/" xmlns:cc="http://creativecommons.org/ns#" xmlns:rdf="http://www.w3.org/1999/02/22-rdf-syntax-ns#" xmlns:svg="http://www.w3.org/2000/svg" xmlns="http://www.w3.org/2000/svg" xmlns:sodipodi="http://sodipodi.sourceforge.net/DTD/sodipodi-0.dtd" xmlns:inkscape="http://www.inkscape.org/namespaces/inkscape" version="1.1" x="0px" y="0px" viewBox="0 0 100 100"><g transform="translate(0,-952.36218)"><path style="text-indent:0;text-transform:none;direction:ltr;block-progression:tb;baseline-shift:baseline;color:#000000;enable-background:accumulate;" d="m 5.9999998,976.36215 c -1.10847,0.012 -1.97542,1.0991 -2,2 l 0,48.00005 c 1e-4,1.0472 0.95283,1.9999 2,2 l 88.0000002,0 c 1.04717,-10e-5 1.9999,-0.9528 2,-2 l 0,-48.00005 c -1e-4,-1.0472 -0.95283,-1.9999 -2,-2 l -88.0000002,0 z m 2,4 25.7500002,0 c -5.96907,5.1881 -9.75,13.1321 -9.75,21.99995 0,8.8842 3.79304,16.8211 9.78125,22.0001 l -25.7812502,0 0,-44.00005 z m 32.8437502,0 18.3125,0 C 66.66071,984.15825 72,992.55125 72,1002.3621 c 0,9.8383 -5.3687,18.2201 -12.90625,22.0001 l -18.1875,0 C 33.3687,1020.5822 28,1012.2004 28,1002.3621 c 0,-9.81085 5.33929,-18.20385 12.84375,-21.99995 z m 25.40625,0 25.75,0 0,44.00005 -25.78125,0 C 72.20696,1019.1832 76,1011.2463 76,1002.3621 c 0,-8.86785 -3.78093,-16.81185 -9.75,-21.99995 z m -16.0625,5 c -1.10365,0 -2,0.8955 -2,2 l 0,1.3438 c -3.45312,0.8044 -6.125,3.8522 -6.125,7.78116 0,2.5074 1.22876,4.46719 2.71875,5.56249 1.48999,1.0954 3.05432,1.5883 4.375,2.2187 2.3607,0.9846 4.79519,2.0478 4.8125,4.2188 0,2.6744 -1.5372,4 -3.96875,4 -1.88667,0 -3.4694,-1.4599 -4.1875,-2.9062 -0.39876,-1.0344 -1.73332,-1.5588 -2.71875,-1.0626 -0.98545,0.4963 -1.3949,1.902 -0.8125,2.8438 1.05378,2.1225 3.09057,4.2458 5.90625,4.9062 l 0,1.0938 c 0,1.1046 0.89635,2 2,2 1.10366,0 2,-0.8954 2,-2 l 0,-1.1875 c 3.26507,-0.9351 5.75,-3.9057 5.75,-7.6875 0,-2.5074 -1.19749,-4.4985 -2.6875,-5.5938 -1.49001,-1.0954 -3.08554,-1.5883 -4.40625,-2.2187 -2.34832,-0.98279 -4.7954,-2.04419 -4.8125,-4.18749 0,-2.67446 1.53714,-3.99996 3.96875,-3.99996 1.88667,0 3.4694,1.4287 4.1875,2.87496 0.39876,1.0343 1.76457,1.5587 2.75,1.0625 0.98544,-0.4962 1.36364,-1.90186 0.78125,-2.84366 -1.00502,-2.0243 -2.91412,-4.0324 -5.53125,-4.7813 l 0,-1.4375 c 0,-1.1045 -0.89634,-2 -2,-2 z" fill="#000000" fill-opacity="1" stroke="none" marker="none" visibility="visible" display="inline" overflow="visible"></path></g></svg>