<svg fill="#414141" xmlns="http://www.w3.org/2000/svg" xmlns:xlink="http://www.w3.org/1999/xlink" version="1.1" x="0px" y="0px" viewBox="0 0 139 173.75" enable-background="new 0 0 139 139" xml:space="preserve"><path d="M69.304,12.791c-31.94,0-57.833,25.895-57.833,57.834s25.893,57.836,57.833,57.836s57.836-25.896,57.836-57.836  S101.244,12.791,69.304,12.791z M97.066,64.302l-38.005,38.002l0.002,0.002c-0.013,0.013-0.026,0.022-0.039,0.035l-0.233,0.233  l-0.012-0.013c-2.144,1.997-4.922,2.993-7.798,2.993c-3.43,0-6.988-1.399-9.741-4.152c-2.448-2.446-3.916-5.606-4.133-8.898  c-0.215-3.256,0.816-6.26,2.886-8.534l-0.021-0.021l37.558-37.558c3.172-3.173,8.563-2.939,12.021,0.518  c1.621,1.621,2.596,3.723,2.741,5.917c0.154,2.312-0.658,4.536-2.227,6.103L59.491,89.506l-4.243-4.242l30.576-30.578  c0.448-0.448,0.509-1.042,0.481-1.46c-0.049-0.732-0.413-1.488-0.998-2.073c-1.099-1.099-2.718-1.335-3.535-0.517l-37.19,37.189  l0.001,0.001c-1.073,1.072-1.602,2.593-1.49,4.283c0.122,1.839,0.97,3.633,2.389,5.052c2.817,2.816,6.994,3.225,9.323,0.916  l38.02-38.017c1.771-1.772,2.647-4.263,2.465-7.012c-0.192-2.899-1.52-5.716-3.737-7.933c-4.472-4.471-11.175-5.042-14.945-1.274  L45.154,75.294l-4.243-4.242l31.454-31.454c6.108-6.107,16.619-5.537,23.43,1.273c3.247,3.245,5.193,7.428,5.482,11.779  C101.575,57.15,100.08,61.288,97.066,64.302z"/></svg>