<svg xmlns="http://www.w3.org/2000/svg" data-name="Layer 1" viewBox="0 0 100 100" x="0px" y="0px"><title>84 all</title><path d="M43.47,36.22H68a3,3,0,0,0,0-6H43.47a3,3,0,0,0,0,6Z"></path><path d="M19.25,40.8a3,3,0,0,0,2.1.86h0a3,3,0,0,0,2.11-.9l9.78-10A3,3,0,1,0,29,26.58l-7.68,7.83-2.87-2.83a3,3,0,0,0-4.21,4.28Z"></path><path d="M29,45.84l-7.68,7.83-2.87-2.83a3,3,0,0,0-4.21,4.28l5,4.93a3,3,0,0,0,2.1.86h0A3,3,0,0,0,23.5,60l9.78-10A3,3,0,1,0,29,45.84Z"></path><path d="M80.85,48.24V16.66a13,13,0,0,0-13-13H15.16a13,13,0,0,0-13,13V63.71a13,13,0,0,0,13,13H49A24.67,24.67,0,1,0,80.85,48.24ZM15.16,9.66H67.85a7,7,0,0,1,6.76,5.2H8.4A7,7,0,0,1,15.16,9.66Zm-7,54.05V20.86H74.85V47.07c-.56,0-1.11-.06-1.68-.06a24.51,24.51,0,0,0-10.82,2.5,2.94,2.94,0,0,0-.33,0H43.47a3,3,0,0,0,0,6H54.59a24.55,24.55,0,0,0-6.06,15.24H15.16A7,7,0,0,1,8.16,63.71Zm65,26.63A18.67,18.67,0,1,1,91.84,71.67,18.69,18.69,0,0,1,73.17,90.34Z"></path><path d="M82.42,62.58a3,3,0,0,0-4.24,0l-5,5-5-5a3,3,0,1,0-4.24,4.24l5,5-5,5a3,3,0,1,0,4.24,4.24l5-5,5,5a3,3,0,0,0,4.24-4.24l-5-5,5-5A3,3,0,0,0,82.42,62.58Z"></path></svg>