<svg xmlns="http://www.w3.org/2000/svg" xmlns:xlink="http://www.w3.org/1999/xlink" version="1.1" x="0px" y="0px" viewBox="0 0 100 125" enable-background="new 0 0 100 100" xml:space="preserve"><path d="M17.5,83.5h-1c-2.196,0-5-2.805-5-5v-68c0-2.047,2.983-3,5-3h47.093l2.902,3.317c0.726,0.828,1.987,0.915,2.822,0.188  c0.831-0.728,0.915-1.99,0.188-2.822l-3.5-4C65.625,3.749,65.077,3.5,64.5,3.5h-48c-4.363,0-9,2.453-9,7v68c0,4.373,4.626,9,9,9h1  c1.104,0,2-0.895,2-2S18.604,83.5,17.5,83.5z M90.914,35.086l-21-21C69.539,13.711,69.03,13.5,68.5,13.5h-36c-4.363,0-9,2.453-9,7  v68c0,4.373,4.626,9,9,9h52c4.547,0,7-4.637,7-9v-52C91.5,35.97,91.289,35.461,90.914,35.086z M69.5,19.328L85.672,35.5H74.5  c-2.196,0-5-2.804-5-5V19.328z M87.5,88.5c0,2.016-0.953,5-3,5h-52c-2.196,0-5-2.805-5-5v-68c0-2.047,2.983-3,5-3h33v13  c0,4.374,4.626,9,9,9h13V88.5z M67.581,61.478c-3.253-3.529-7.064-8.444-10.245-13.218c0.772-3.9,1.164-6.845,1.164-8.76  c0-8.535-10-8.535-10,0c0,0.618,0,2.461,4.587,9.574c-1.264,5.993-3.177,13.134-5.104,19.053c-4.354,1.906-7.344,3.656-8.896,5.209  c-1.995,1.994-2.6,4.602-1.617,6.973c0.887,2.141,2.902,3.578,5.016,3.578c1.28,0,2.467-0.51,3.43-1.473  c0.552-0.553,2.198-2.197,5.295-11.313c5.321-2.205,11.165-4.072,15.11-5.16c4.569,4.568,6.847,5.121,8.181,5.121  c3.076,0,5.578-2.322,5.578-5.178c0-1.533-0.781-2.95-2.144-3.887c-1.325-0.911-3.153-1.373-5.435-1.373  C71.531,60.625,69.88,60.911,67.581,61.478z M43.086,79.586c-0.27,0.27-0.473,0.301-0.602,0.301c-0.423,0-1.032-0.414-1.32-1.109  c-0.249-0.6-0.321-1.541,0.75-2.613c0.503-0.502,1.65-1.416,4.207-2.734C44.719,77.084,43.672,79,43.086,79.586z M52.5,39.5  c0-1.745,0.662-2.5,1-2.5s1,0.755,1,2.5c0,0.879-0.114,2.116-0.333,3.638C52.918,40.899,52.529,39.781,52.5,39.5z M52.789,66.176  c1.232-4.057,2.414-8.449,3.382-12.562c2.305,3.235,4.785,6.396,7.092,9.038C59.835,63.659,56.144,64.902,52.789,66.176z   M76.078,65.885c0,0.492-0.601,1.178-1.578,1.178c-0.05,0-1.007-0.033-3.531-2.236c0.758-0.142,1.263-0.201,1.531-0.201  c1.91,0,2.805,0.419,3.169,0.669C76.078,65.576,76.078,65.809,76.078,65.885z"/></svg>