<svg xmlns="http://www.w3.org/2000/svg" xmlns:xlink="http://www.w3.org/1999/xlink" viewBox="0 0 24 21.25" version="1.1" x="0px" y="0px"><title>195 - Reject - (arrow, direction, orientation)</title><desc>Created with Sketch.</desc><g stroke="none" stroke-width="1" fill="none" fill-rule="evenodd"><g transform="translate(-311.000000, -1217.000000)" fill="#000000"><g transform="translate(311.000000, 1217.000000)"><path d="M11,16.6563 C10.75,16.6563 10.499,16.5623 10.306,16.3763 L0.306,6.7193 C0.112,6.5333 0.002,6.2773 -2.07424816e-16,6.0093 C-0.002,5.7403 0.104,5.4823 0.293,5.2933 L3.293,2.2933 C3.684,1.9023 4.316,1.9023 4.707,2.2933 L11,8.5863 L13.586,6.0003 L11.664,4.0783 C11.406,3.8203 11.309,3.4423 11.411,3.0923 C11.513,2.7413 11.797,2.4743 12.153,2.3953 L22.782,0.0243 C23.111,-0.0497 23.454,0.0483 23.695,0.2813 C23.937,0.5143 24.045,0.8533 23.982,1.1843 L21.931,12.1333 C21.863,12.4973 21.599,12.7943 21.244,12.9033 C20.889,13.0113 20.504,12.9173 20.241,12.6553 L17.828,10.2423 L11.707,16.3633 C11.512,16.5583 11.256,16.6563 11,16.6563"/></g></g></g><text x="0" y="32" fill="#000000" font-size="5px" font-weight="bold" font-family="'Helvetica Neue', Helvetica, Arial-Unicode, Arial, Sans-serif">Created by Ben Davis</text><text x="0" y="37" fill="#000000" font-size="5px" font-weight="bold" font-family="'Helvetica Neue', Helvetica, Arial-Unicode, Arial, Sans-serif">from the Noun Project</text></svg>