<svg xmlns="http://www.w3.org/2000/svg" xmlns:xlink="http://www.w3.org/1999/xlink" version="1.1" x="0px" y="0px" viewBox="0 0 90 90" enable-background="new 0 0 90 90" xml:space="preserve"><path d="M58.734,67.437v5.795c0,1.124-0.905,2.029-2.018,2.029H12.582c-1.112,0-2.028-0.905-2.028-2.029V16.768  c0-1.12,0.916-2.025,2.028-2.025h44.135c1.112,0,2.018,0.905,2.018,2.025V25.2l6.272,6.272V15.077c0-3.843-3.127-6.969-6.974-6.969  H11.266c-3.847,0-6.978,3.126-6.978,6.969v59.845c0,3.843,3.131,6.973,6.978,6.973h46.768c3.847,0,6.974-3.13,6.974-6.973V61.164  L58.734,67.437z"></path><path d="M84.032,56.786l-10.474-10.47l10.462-10.466c2.245-2.248,2.245-5.891-0.004-8.14c-2.249-2.241-5.896-2.245-8.144,0.004  L65.419,38.173l-10.45-10.454c-2.249-2.249-5.896-2.241-8.141-0.004c-2.248,2.249-2.248,5.892-0.003,8.144l10.454,10.458  L46.813,56.782c-2.245,2.249-2.245,5.895,0.004,8.144c1.124,1.117,2.595,1.679,4.065,1.679c1.475,0,2.95-0.562,4.074-1.687  l10.462-10.462l10.466,10.47c1.124,1.124,2.599,1.687,4.073,1.687c1.471,0,2.942-0.563,4.066-1.683  C86.272,62.681,86.272,59.038,84.032,56.786z"></path></svg>